# xmcd
#
# Track frame offsets:
#	150
#	11702
#	24395
#	34362
#	47302
#	58900
#	71335
#	92567
#	104702
#	113437
#	124850
#	136250
#	146877
#	157902
#	169747
#	180052
#	191970
#	204242
#	218132
#	232237
#	245735
#	256697
#	267927
#	278275
#
# Disc length: 3893 seconds
#
# Revision: 8
# Processed by: cddbd v1.5.2PL0 Copyright (c) Steve Scherf et al.
# Submitted via: dBpowerAMP V4.0
#
DISCID=500f3318
DTITLE=Various Artist - Country USA 1959
DYEAR=1900
DGENRE=Country
TTITLE0=Johnny Horton - The Battle Of New Orleans
TTITLE1=George Jones - White Lightning
TTITLE2=Don Gibson - Who Cares
TTITLE3=The Browns - The Three Bells
TTITLE4=Frankie Miller - Black Land Farmer
TTITLE5=Ray Price - The Same Old Me
TTITLE6=Marty Robbins - El Paso
TTITLE7=Kitty Wells - Amigo's Guitar
TTITLE8=Webb Pierce - I Ain't Never
TTITLE9=Lester Flatt and Earl Scruggs - Cabin On The Hill
TTITLE10=Billy Grammer - Gotta Travel On
TTITLE11=Jim Reeves - He'll Have To Go
TTITLE12=George Jones - Who Shot Sam
TTITLE13=Faron Young - Country Girl
TTITLE14=Skeeter Davis - Set Him Free
TTITLE15=Johnny Horton - When It's Springtime In Alaska
TTITLE16=Buck Owens - Under Your Spell Again
TTITLE17=Johnny Cash - Don't Take Your Guns To Town
TTITLE18=Eddy Arnold - Tennessee Stud
TTITLE19=Ray Price - Heartaches By The Number
TTITLE20=Wilma Lee and Stoney Cooper - Come Walk With Me
TTITLE21=Stonewall Jackson - Waterloo
TTITLE22=Don Gibson - Don't Tell Me Your Troubles
TTITLE23=Lefty Frizzell - The Long Black Veil
EXTD=
EXTT0=
EXTT1=
EXTT2=
EXTT3=
EXTT4=
EXTT5=
EXTT6=
EXTT7=
EXTT8=
EXTT9=
EXTT10=
EXTT11=
EXTT12=
EXTT13=
EXTT14=
EXTT15=
EXTT16=
EXTT17=
EXTT18=
EXTT19=
EXTT20=
EXTT21=
EXTT22=
EXTT23=
PLAYORDER=
